<svg width="29" height="29" viewBox="0 0 29 29" fill="none" xmlns="http://www.w3.org/2000/svg">
<g clip-path="url(#clip0_1_633)">
<path d="M12.4537 6.39288C12.4537 5.78272 12.6988 5.19756 13.1353 4.76611C13.5717 4.33467 14.1636 4.09229 14.7808 4.09229C15.3979 4.09229 15.9898 4.33467 16.4262 4.76611C16.8627 5.19756 17.1078 5.78272 17.1078 6.39288C18.4441 7.01752 19.5832 7.98987 20.403 9.2057C21.2229 10.4215 21.6927 11.835 21.762 13.2947V16.7456C21.8496 17.4607 22.1058 18.1455 22.5099 18.7449C22.9141 19.3443 23.455 19.8415 24.0891 20.1964H5.47241C6.10647 19.8415 6.64737 19.3443 7.05156 18.7449C7.45575 18.1455 7.71193 17.4607 7.7995 16.7456V13.2947C7.8688 11.835 8.33857 10.4215 9.15846 9.2057C9.97834 7.98987 11.1174 7.01752 12.4537 6.39288" stroke="#211F1F" stroke-width="1.5" stroke-linecap="round" stroke-linejoin="round"/>
<path d="M11.2896 20.1963V21.3466C11.2896 22.2618 11.6573 23.1396 12.3119 23.7867C12.9666 24.4339 13.8544 24.7975 14.7802 24.7975C15.7059 24.7975 16.5938 24.4339 17.2484 23.7867C17.903 23.1396 18.2708 22.2618 18.2708 21.3466V20.1963" stroke="#211F1F" stroke-width="1.5" stroke-linecap="round" stroke-linejoin="round"/>
</g>
<defs>
<clipPath id="clip0_1_633">
<rect width="27.925" height="27.6071" fill="white" transform="translate(0.817627 0.641357)"/>
</clipPath>
</defs>
</svg>
