<svg width="64" height="67" viewBox="0 0 64 67" fill="none" xmlns="http://www.w3.org/2000/svg">
<path d="M17.5625 30.7601C14.1879 30.7601 10.889 31.8046 8.08309 33.7616C5.27718 35.7185 3.09023 38.5 1.79881 41.7543C0.507393 45.0086 0.169498 48.5896 0.827859 52.0443C1.48622 55.4991 3.11127 58.6725 5.4975 61.1632C7.88373 63.654 10.924 65.3502 14.2338 66.0374C17.5436 66.7246 20.9743 66.3719 24.092 65.0239C27.2098 63.6759 29.8746 61.3932 31.7495 58.4644C33.6243 55.5356 34.625 52.0923 34.625 48.5698C34.6195 43.8482 32.82 39.3216 29.6214 35.9828C26.4227 32.6441 22.0861 30.7659 17.5625 30.7601ZM23.9938 47.7944C23.8866 48.0265 23.719 48.2224 23.51 48.3596C23.3011 48.4967 23.0593 48.5696 22.8125 48.5698H20.513C20.4282 48.5705 20.347 48.6054 20.2863 48.6672C20.2256 48.729 20.1902 48.8129 20.1875 48.9014V56.7897C20.1875 57.5164 19.9109 58.2133 19.4187 58.7272C18.9264 59.241 18.2587 59.5297 17.5625 59.5297C16.8663 59.5297 16.1986 59.241 15.7064 58.7272C15.2141 58.2133 14.9375 57.5164 14.9375 56.7897V48.9123C14.9362 48.8224 14.9015 48.7365 14.8408 48.6726C14.7802 48.6088 14.6982 48.5719 14.612 48.5698H12.3125C12.0653 48.57 11.8231 48.4973 11.6138 48.36C11.4044 48.2228 11.2365 48.0267 11.1292 47.7942C11.022 47.5617 10.9798 47.3024 11.0076 47.046C11.0353 46.7896 11.1319 46.5466 11.2861 46.345L16.5361 39.4951C16.6635 39.3414 16.8211 39.2181 16.9982 39.1335C17.1753 39.049 17.3678 39.0053 17.5625 39.0053C17.7572 39.0053 17.9497 39.049 18.1268 39.1335C18.3039 39.2181 18.4615 39.3414 18.5889 39.4951L23.8389 46.345C23.9928 46.5468 24.0891 46.79 24.1165 47.0464C24.1439 47.3028 24.1013 47.5621 23.9938 47.7944Z" fill="#19A752"/>
<path opacity="0.3" d="M61.9644 8.84031L55.625 2.2233C54.6403 1.19655 53.3052 0.620006 51.9133 0.620423H21.5C20.1076 0.620423 18.7723 1.19777 17.7877 2.22546C16.8031 3.25314 16.25 4.64698 16.25 6.10035V26.0336C16.2486 26.2119 16.3144 26.3837 16.4332 26.5119C16.5521 26.64 16.7144 26.7143 16.8853 26.7186C17.846 26.7378 19.61 26.8117 20.7834 26.9433C20.8745 26.9542 20.9668 26.9447 21.054 26.9154C21.1413 26.8861 21.2216 26.8376 21.2895 26.7733C21.3573 26.7089 21.4112 26.6301 21.4475 26.5423C21.4839 26.4544 21.5017 26.3594 21.5 26.2637V7.47033C21.5 7.10699 21.6383 6.75853 21.8844 6.50161C22.1306 6.24469 22.4644 6.10035 22.8125 6.10035H51.3699C51.7173 6.10043 52.0505 6.24428 52.2965 6.50038L57.8668 12.3146C58.1121 12.5713 58.2499 12.9192 58.25 13.2818V49.9398C58.25 50.3031 58.1117 50.6516 57.8656 50.9085C57.6195 51.1654 57.2856 51.3097 56.9375 51.3097H38.9353C38.7811 51.3102 38.6323 51.3686 38.5161 51.4743C38.3999 51.5799 38.3241 51.7258 38.3026 51.8851C38.1059 53.2453 37.786 54.5829 37.3471 55.88C37.3101 55.9812 37.2972 56.0904 37.3096 56.198C37.322 56.3055 37.3592 56.4084 37.4181 56.4976C37.477 56.5869 37.5558 56.6598 37.6477 56.7102C37.7396 56.7606 37.8418 56.787 37.9456 56.7869H58.25C59.6424 56.7869 60.9778 56.2096 61.9623 55.1819C62.9469 54.1542 63.5 52.7604 63.5 51.307V12.7146C63.5004 11.2618 62.9481 9.86821 61.9644 8.84031Z" fill="#19A752"/>
<g clip-path="url(#clip0_1607_667)">
<path d="M44.5 23.5839H44.51" stroke="#211F1F" stroke-width="1.5" stroke-linecap="round" stroke-linejoin="round"/>
<path d="M46.5 19.4087H36.5C34.8431 19.4087 33.5 20.8107 33.5 22.5401V32.9781C33.5 34.7075 34.8431 36.1095 36.5 36.1095H46.5C48.1569 36.1095 49.5 34.7075 49.5 32.9781V22.5401C49.5 20.8107 48.1569 19.4087 46.5 19.4087Z" stroke="#211F1F" stroke-width="1.5" stroke-linecap="round" stroke-linejoin="round"/>
<path d="M33.5 30.8905L37.5 26.7153C37.9561 26.2572 38.4734 26.0161 39 26.0161C39.5266 26.0161 40.0439 26.2572 40.5 26.7153L45.5 31.9343" stroke="#211F1F" stroke-width="1.5" stroke-linecap="round" stroke-linejoin="round"/>
<path d="M43.5 29.8467L44.5 28.8029C44.9561 28.3448 45.4734 28.1037 46 28.1037C46.5266 28.1037 47.0439 28.3448 47.5 28.8029L49.5 30.8905" stroke="#211F1F" stroke-width="1.5" stroke-linecap="round" stroke-linejoin="round"/>
</g>
<defs>
<clipPath id="clip0_1607_667">
<rect width="24" height="25.0511" fill="white" transform="translate(29.5 15.2336)"/>
</clipPath>
</defs>
</svg>
