<svg width="19" height="19" viewBox="0 0 19 19" fill="none" xmlns="http://www.w3.org/2000/svg">
<g clip-path="url(#clip0_1618_221)">
<path d="M3.95833 9.5H2.375L9.5 2.375L16.625 9.5H15.0417" stroke="white" stroke-width="1.5" stroke-linecap="round" stroke-linejoin="round"/>
<path d="M3.95833 9.5V15.0417C3.95833 15.4616 4.12515 15.8643 4.42208 16.1613C4.71901 16.4582 5.12174 16.625 5.54167 16.625H13.4583C13.8783 16.625 14.281 16.4582 14.5779 16.1613C14.8748 15.8643 15.0417 15.4616 15.0417 15.0417V9.5" stroke="white" stroke-width="1.5" stroke-linecap="round" stroke-linejoin="round"/>
<path d="M7.125 16.625V11.875C7.125 11.4551 7.29182 11.0524 7.58875 10.7554C7.88568 10.4585 8.28841 10.2917 8.70833 10.2917H10.2917C10.7116 10.2917 11.1143 10.4585 11.4113 10.7554C11.7082 11.0524 11.875 11.4551 11.875 11.875V16.625" stroke="white" stroke-width="1.5" stroke-linecap="round" stroke-linejoin="round"/>
</g>
<defs>
<clipPath id="clip0_1618_221">
<rect width="19" height="19" fill="white"/>
</clipPath>
</defs>
</svg>
